# xmcd CD Database Entry
#
# Track frame offsets:
# 150
# 24542
# 46575
# 68377
# 98810
# 139852
# 148595
# 223015
# 246205
# 281545
#
# Disc length: 4059 seconds
#
# Revision: 2
# Processed by: cddbd v1.4PL0 Copyright (c) Steve Scherf et al.
# Submitted via: tcd 2.0b
#
DISCID=8a0fd90a
DTITLE=Dio - Leicester
DYEAR=1900
DGENRE=
TTITLE0=Stand Up And Shout
TTITLE1=Straight Through The Heart
TTITLE2=Shame On The Night
TTITLE3=Children Of The Sea
TTITLE4=Holy Diver
TTITLE5=Stargazer
TTITLE6=Heaven And Hell
TTITLE7=Rainbow In The Dark
TTITLE8=Man On The Silver Mountain
TTITLE9=Don't Talk To Strangers
EXTD=
EXTT0=
EXTT1=
EXTT2=
EXTT3=
EXTT4=
EXTT5=
EXTT6=
EXTT7=
EXTT8=
EXTT9=
PLAYORDER=
